<svg width="52" height="81" viewBox="0 0 52 81" fill="none" xmlns="http://www.w3.org/2000/svg">
<path d="M14.0287 40.3897L42.3612 69.4513C42.5945 69.6855 42.779 69.9636 42.9041 70.2696C43.0292 70.5756 43.0924 70.9033 43.09 71.2339C43.0875 71.5644 43.0196 71.8912 42.89 72.1954C42.7605 72.4995 42.5719 72.7749 42.3353 73.0056C42.0986 73.2364 41.8185 73.4179 41.5112 73.5397C41.2039 73.6615 40.8754 73.7212 40.5449 73.7152C40.2144 73.7093 39.8884 73.6378 39.5857 73.505C39.283 73.3722 39.0096 73.1807 38.7814 72.9416L8.75043 42.1384C8.29589 41.6721 8.0412 41.0469 8.04054 40.3957C8.03989 39.7446 8.29332 39.1189 8.74693 38.6517L38.7159 7.78825C38.9437 7.54865 39.2167 7.35659 39.5191 7.22318C39.8216 7.08978 40.1475 7.01767 40.4779 7.01105C40.8084 7.00443 41.137 7.06341 41.4445 7.18459C41.7521 7.30577 42.0325 7.48674 42.2697 7.71702C42.5068 7.94731 42.696 8.22234 42.8261 8.5262C42.9563 8.83007 43.0249 9.15672 43.0279 9.48727C43.031 9.81782 42.9685 10.1457 42.844 10.4519C42.7196 10.7582 42.5356 11.0367 42.3028 11.2713L14.0287 40.3897Z" fill="white"/>
</svg>
