<svg width="52" height="81" viewBox="0 0 52 81" fill="none" xmlns="http://www.w3.org/2000/svg">
<path d="M37.0304 40.3526L8.72704 11.2626C8.49399 11.0281 8.30974 10.7498 8.18496 10.4437C8.06018 10.1376 7.99734 9.80978 8.00009 9.47923C8.00283 9.14868 8.07111 8.82196 8.20096 8.51797C8.3308 8.21398 8.51965 7.93876 8.75657 7.70823C8.99348 7.47771 9.27377 7.29645 9.58119 7.17496C9.88862 7.05348 10.2171 6.99416 10.5476 7.00045C10.8781 7.00675 11.2041 7.07852 11.5066 7.21162C11.8092 7.34473 12.0824 7.53651 12.3104 7.77589L42.3104 38.6092C42.7644 39.0759 43.0185 39.7014 43.0185 40.3526C43.0185 41.0037 42.7644 41.6292 42.3104 42.0959L12.3104 72.9292C12.0824 73.1686 11.8092 73.3604 11.5066 73.4935C11.2041 73.6266 10.8781 73.6984 10.5476 73.7047C10.2171 73.711 9.88862 73.6516 9.58119 73.5302C9.27377 73.4087 8.99348 73.2274 8.75657 72.9969C8.51965 72.7664 8.3308 72.4911 8.20096 72.1871C8.07111 71.8832 8.00283 71.5564 8.00009 71.2259C7.99734 70.8953 8.06018 70.5675 8.18496 70.2614C8.30974 69.9553 8.49399 69.677 8.72704 69.4426L37.0304 40.3526Z" fill="white"/>
</svg>
